<?xml version="1.0" encoding="iso-8859-1"?>
<!-- Uploaded to: SVG Repo, www.svgrepo.com, Generator: SVG Repo Mixer Tools -->
<svg height="800px" width="800px" version="1.1" id="Layer_1" xmlns="http://www.w3.org/2000/svg" xmlns:xlink="http://www.w3.org/1999/xlink" 
	 viewBox="0 0 274.602 274.602" xml:space="preserve">
<g>
	<g>
		<path style="fill:#4EFFBB;" d="M270.192,33.912c-2.245-1.473-5.112-1.704-7.63-0.466L28.063,148.974
			c-2.942,1.434-4.646,4.61-4.261,7.901c0.427,3.291,2.867,5.926,6.119,6.624c27.847,5.848,71.065,15.143,85.706,18.705v75.753
			c0,3.252,2.014,6.197,5.112,7.282c0.853,0.31,1.743,0.466,2.633,0.466c2.245,0,4.454-0.968,5.926-2.789l48.486-58.326
			c13.091,5.151,51.546,19.946,84.426,32.61c0.929,0.349,1.86,0.505,2.789,0.505c1.551,0,3.059-0.466,4.376-1.316
			c2.092-1.434,3.33-3.796,3.369-6.353l1.857-189.186C274.646,37.825,272.864,35.189,270.192,33.912z"/>
		<g id="XMLID_13_">
			<g>
				<path style="fill:#222051;" d="M98.037,144.162c11.814-10.185,59.756-56.273,103.753-98.95L31.27,129.214
					C72.787,138.005,90.293,142.032,98.037,144.162z M103.071,145.788c-0.736-0.388-1.512-0.697-2.245-0.814
					C101.794,145.286,102.53,145.557,103.071,145.788z M246.445,10.162c2.672,1.277,4.454,3.913,4.415,6.933L249,206.281
					c-0.039,2.554-1.277,4.92-3.369,6.35c-1.316,0.853-2.828,1.316-4.376,1.316c-0.929,0-1.86-0.156-2.789-0.505
					c-32.88-12.664-71.338-27.459-84.426-32.61l-48.489,58.332c-1.473,1.821-3.678,2.789-5.926,2.789
					c-0.89,0-1.782-0.156-2.633-0.466c-3.098-1.085-5.112-4.027-5.112-7.282v-75.753c-14.639-3.564-57.86-12.856-85.706-18.705
					c-3.252-0.697-5.692-3.33-6.119-6.624c-0.388-3.291,1.316-6.467,4.261-7.901L238.815,9.696
					C241.33,8.458,244.197,8.692,246.445,10.162z M233.625,194.975l1.473-149.414c-27.612,46.359-61.115,103.095-71.609,122.343
					C177.237,173.247,208.101,185.175,233.625,194.975z"/>
				<path style="fill:#302C58;" d="M235.097,45.561l-1.473,149.414c-25.523-9.797-56.387-21.728-70.136-27.071
					C173.983,148.655,207.482,91.919,235.097,45.561z"/>
				<path style="fill:#302C58;" d="M31.27,129.214l170.52-84.002c-43.997,42.677-91.942,88.766-103.753,98.95
					C90.293,142.032,72.787,138.005,31.27,129.214z"/>
			</g>
		</g>
	</g>
</g>
</svg>